G75*
%MOIN*%
%OFA0B0*%
%FSLAX24Y24*%
%IPPOS*%
%LPD*%
%AMOC8*
5,1,8,0,0,1.08239X$1,22.5*
%
%ADD10C,0.0520*%
%ADD11C,0.0600*%
%ADD12C,0.0594*%
%ADD13OC8,0.0630*%
%ADD14C,0.0630*%
%ADD15C,0.0520*%
%ADD16C,0.0100*%
%ADD17C,0.0160*%
%ADD18C,0.0400*%
D10*
X010420Y001682D02*
X010940Y001682D01*
X010940Y002682D02*
X010420Y002682D01*
X010420Y003682D02*
X010940Y003682D01*
X010940Y004682D02*
X010420Y004682D01*
X010420Y005682D02*
X010940Y005682D01*
X010940Y006682D02*
X010420Y006682D01*
X010420Y007682D02*
X010940Y007682D01*
X010940Y008682D02*
X010420Y008682D01*
X010420Y009682D02*
X010940Y009682D01*
X010940Y010682D02*
X010420Y010682D01*
X013420Y010682D02*
X013940Y010682D01*
X013940Y009682D02*
X013420Y009682D01*
X013420Y008682D02*
X013940Y008682D01*
X013940Y007682D02*
X013420Y007682D01*
X013420Y006682D02*
X013940Y006682D01*
X013940Y005682D02*
X013420Y005682D01*
X013420Y004682D02*
X013940Y004682D01*
X013940Y003682D02*
X013420Y003682D01*
X013420Y002682D02*
X013940Y002682D01*
X013940Y001682D02*
X013420Y001682D01*
D11*
X015380Y001680D02*
X015980Y001680D01*
X015980Y002680D02*
X015380Y002680D01*
X015380Y003680D02*
X015980Y003680D01*
X015980Y004680D02*
X015380Y004680D01*
X015380Y005680D02*
X015980Y005680D01*
X008680Y001480D02*
X008680Y000880D01*
X007680Y000880D02*
X007680Y001480D01*
X006680Y001480D02*
X006680Y000880D01*
X005680Y000880D02*
X005680Y001480D01*
X003680Y006880D02*
X003680Y007480D01*
X002680Y007480D02*
X002680Y006880D01*
X001680Y006880D02*
X001680Y007480D01*
X005600Y012290D02*
X006200Y012290D01*
X008160Y012290D02*
X008760Y012290D01*
X009600Y012290D02*
X010200Y012290D01*
X010200Y014070D02*
X009600Y014070D01*
X008760Y014070D02*
X008160Y014070D01*
X006200Y014070D02*
X005600Y014070D01*
X012160Y014070D02*
X012760Y014070D01*
X013600Y014070D02*
X014200Y014070D01*
X014200Y012290D02*
X013600Y012290D01*
X012760Y012290D02*
X012160Y012290D01*
X016160Y012290D02*
X016760Y012290D01*
X016760Y014070D02*
X016160Y014070D01*
D12*
X002477Y002180D02*
X001883Y002180D01*
X001883Y001180D02*
X002477Y001180D01*
D13*
X002180Y004680D03*
X006880Y006680D03*
D14*
X005480Y006680D03*
X001180Y004680D03*
D15*
X015180Y010680D03*
X016180Y010680D03*
D16*
X015680Y011180D01*
X014680Y011180D01*
X014680Y010680D01*
X013680Y009680D01*
X013680Y009682D01*
X013680Y008682D02*
X013680Y008680D01*
X015180Y010180D01*
X015180Y010680D01*
X014180Y012180D02*
X013900Y012290D01*
X014180Y012180D02*
X016180Y012180D01*
X016460Y012290D01*
X012460Y012290D02*
X012180Y012180D01*
X010180Y012180D01*
X009900Y012290D01*
X008460Y012290D02*
X008180Y012180D01*
X007180Y012180D01*
X007180Y006680D01*
X006880Y006680D01*
X006680Y006180D02*
X004680Y008180D01*
X004680Y014180D01*
X005680Y014180D01*
X005900Y014070D01*
X005900Y012290D02*
X006180Y012180D01*
X007180Y012180D01*
X008180Y007180D02*
X013180Y007180D01*
X013680Y007680D01*
X013680Y007682D01*
X013680Y006682D02*
X013680Y006680D01*
X011680Y004680D01*
X011680Y002180D01*
X008680Y002180D01*
X007680Y001180D01*
X010680Y003680D02*
X010680Y003682D01*
X010680Y003680D02*
X008180Y006180D01*
X006680Y006180D01*
X005480Y006680D02*
X005180Y006680D01*
X004680Y006180D01*
X003680Y006180D01*
X002680Y007180D01*
X001180Y004680D02*
X001180Y002180D01*
X002180Y002180D01*
X012680Y003180D02*
X015180Y003180D01*
X015680Y002680D01*
X015680Y003680D02*
X014680Y003680D01*
X013680Y004680D01*
X013680Y004682D01*
X013680Y005680D02*
X013680Y005682D01*
X013680Y005680D02*
X012680Y004680D01*
X012680Y003180D01*
D17*
X000660Y000660D02*
X000660Y014696D01*
X002027Y014696D01*
X002012Y014692D01*
X001618Y014464D01*
X001296Y014142D01*
X001068Y013748D01*
X000950Y013308D01*
X000950Y012852D01*
X001068Y012412D01*
X001296Y012018D01*
X001618Y011696D01*
X002012Y011468D01*
X002452Y011350D01*
X002908Y011350D01*
X003348Y011468D01*
X003742Y011696D01*
X004064Y012018D01*
X004292Y012412D01*
X004410Y012852D01*
X004410Y013308D01*
X004292Y013748D01*
X004064Y014142D01*
X003742Y014464D01*
X003348Y014692D01*
X003333Y014696D01*
X016570Y014696D01*
X016570Y014530D01*
X016068Y014530D01*
X015899Y014460D01*
X015770Y014331D01*
X015700Y014161D01*
X015700Y013978D01*
X015770Y013809D01*
X015899Y013680D01*
X016068Y013610D01*
X016570Y013610D01*
X016570Y012770D01*
X016480Y012770D01*
X016480Y012310D01*
X016440Y012310D01*
X016440Y012770D01*
X016122Y012770D01*
X016048Y012758D01*
X015976Y012735D01*
X015908Y012701D01*
X015847Y012656D01*
X015794Y012603D01*
X015749Y012542D01*
X015715Y012474D01*
X015692Y012402D01*
X015680Y012328D01*
X015680Y012310D01*
X016440Y012310D01*
X016440Y012270D01*
X016480Y012270D01*
X016480Y011810D01*
X016570Y011810D01*
X016570Y010836D01*
X016536Y010918D01*
X016418Y011036D01*
X016264Y011100D01*
X016096Y011100D01*
X016069Y011088D01*
X015767Y011390D01*
X014593Y011390D01*
X014470Y011267D01*
X014470Y010767D01*
X014380Y010677D01*
X014380Y010682D01*
X014380Y010717D01*
X014369Y010785D01*
X014348Y010851D01*
X014316Y010913D01*
X014276Y010969D01*
X014227Y011018D01*
X014171Y011058D01*
X014109Y011090D01*
X014043Y011111D01*
X013975Y011122D01*
X013680Y011122D01*
X013385Y011122D01*
X013317Y011111D01*
X013251Y011090D01*
X013189Y011058D01*
X013133Y011018D01*
X013084Y010969D01*
X013044Y010913D01*
X013012Y010851D01*
X012991Y010785D01*
X012980Y010717D01*
X012980Y010682D01*
X013680Y010682D01*
X013680Y010682D01*
X013680Y011122D01*
X013680Y010682D01*
X013680Y010682D01*
X014380Y010682D01*
X013680Y010682D01*
X013680Y010682D01*
X012980Y010682D01*
X012980Y010647D01*
X012991Y010579D01*
X013012Y010513D01*
X013044Y010451D01*
X013084Y010395D01*
X013133Y010346D01*
X013189Y010306D01*
X013251Y010274D01*
X013317Y010253D01*
X013385Y010242D01*
X013680Y010242D01*
X013945Y010242D01*
X013805Y010102D01*
X013336Y010102D01*
X013182Y010038D01*
X013064Y009920D01*
X013000Y009766D01*
X013000Y009598D01*
X013064Y009444D01*
X013182Y009326D01*
X013336Y009262D01*
X013965Y009262D01*
X013805Y009102D01*
X013336Y009102D01*
X013182Y009038D01*
X013064Y008920D01*
X013000Y008766D01*
X013000Y008598D01*
X013064Y008444D01*
X013182Y008326D01*
X013336Y008262D01*
X014024Y008262D01*
X014178Y008326D01*
X014296Y008444D01*
X014360Y008598D01*
X014360Y008766D01*
X014296Y008920D01*
X014256Y008959D01*
X015267Y009970D01*
X015390Y010093D01*
X015390Y010312D01*
X015418Y010324D01*
X015942Y010324D01*
X016096Y010260D01*
X016264Y010260D01*
X016418Y010324D01*
X016570Y010324D01*
X016536Y010442D02*
X016570Y010524D01*
X016570Y000660D01*
X009107Y000660D01*
X009125Y000696D01*
X009148Y000768D01*
X009160Y000842D01*
X009160Y001160D01*
X008700Y001160D01*
X008700Y001200D01*
X009160Y001200D01*
X009160Y001518D01*
X009148Y001592D01*
X009125Y001664D01*
X009091Y001732D01*
X009046Y001793D01*
X008993Y001846D01*
X008932Y001891D01*
X008864Y001925D01*
X008792Y001948D01*
X008752Y001955D01*
X008767Y001970D01*
X010114Y001970D01*
X010064Y001920D01*
X010000Y001766D01*
X010000Y001598D01*
X010064Y001444D01*
X010182Y001326D01*
X010336Y001262D01*
X011024Y001262D01*
X011178Y001326D01*
X011296Y001444D01*
X011360Y001598D01*
X011360Y001766D01*
X011296Y001920D01*
X011246Y001970D01*
X011767Y001970D01*
X011890Y002093D01*
X011890Y004593D01*
X013000Y005703D01*
X013000Y005598D01*
X013064Y005444D01*
X013106Y005402D01*
X012593Y004890D01*
X012470Y004767D01*
X012470Y003093D01*
X012593Y002970D01*
X013114Y002970D01*
X013064Y002920D01*
X013000Y002766D01*
X013000Y002598D01*
X013064Y002444D01*
X013182Y002326D01*
X013336Y002262D01*
X014024Y002262D01*
X014178Y002326D01*
X014296Y002444D01*
X014360Y002598D01*
X014360Y002766D01*
X014296Y002920D01*
X014246Y002970D01*
X015019Y002970D01*
X014990Y002941D01*
X014920Y002771D01*
X014920Y002588D01*
X014990Y002419D01*
X015119Y002290D01*
X015288Y002220D01*
X016071Y002220D01*
X016241Y002290D01*
X016370Y002419D01*
X016440Y002588D01*
X016440Y002771D01*
X016370Y002941D01*
X016241Y003070D01*
X016071Y003140D01*
X015517Y003140D01*
X015437Y003220D01*
X016071Y003220D01*
X016241Y003290D01*
X016370Y003419D01*
X016440Y003588D01*
X016440Y003771D01*
X016370Y003941D01*
X016241Y004070D01*
X016071Y004140D01*
X015288Y004140D01*
X015119Y004070D01*
X014990Y003941D01*
X014969Y003890D01*
X014767Y003890D01*
X014254Y004402D01*
X014296Y004444D01*
X014360Y004598D01*
X014360Y004766D01*
X014296Y004920D01*
X014178Y005038D01*
X014024Y005102D01*
X013399Y005102D01*
X013559Y005262D01*
X014024Y005262D01*
X014178Y005326D01*
X014296Y005444D01*
X014360Y005598D01*
X014360Y005766D01*
X014296Y005920D01*
X014178Y006038D01*
X014024Y006102D01*
X013399Y006102D01*
X013559Y006262D01*
X014024Y006262D01*
X014178Y006326D01*
X014296Y006444D01*
X014360Y006598D01*
X014360Y006766D01*
X014296Y006920D01*
X014178Y007038D01*
X014024Y007102D01*
X013399Y007102D01*
X013559Y007262D01*
X014024Y007262D01*
X014178Y007326D01*
X014296Y007444D01*
X014360Y007598D01*
X014360Y007766D01*
X014296Y007920D01*
X014178Y008038D01*
X014024Y008102D01*
X013336Y008102D01*
X013182Y008038D01*
X013064Y007920D01*
X013000Y007766D01*
X013000Y007598D01*
X013064Y007444D01*
X013106Y007402D01*
X013093Y007390D01*
X011242Y007390D01*
X011296Y007444D01*
X011360Y007598D01*
X011360Y007766D01*
X011296Y007920D01*
X011178Y008038D01*
X011024Y008102D01*
X010336Y008102D01*
X010182Y008038D01*
X010064Y007920D01*
X010000Y007766D01*
X010000Y007598D01*
X010064Y007444D01*
X010118Y007390D01*
X008479Y007390D01*
X008384Y007485D01*
X008252Y007540D01*
X008108Y007540D01*
X007976Y007485D01*
X007875Y007384D01*
X007820Y007252D01*
X007820Y007108D01*
X007875Y006976D01*
X007976Y006875D01*
X008108Y006820D01*
X008252Y006820D01*
X008384Y006875D01*
X008479Y006970D01*
X010114Y006970D01*
X010064Y006920D01*
X010000Y006766D01*
X010000Y006598D01*
X010064Y006444D01*
X010182Y006326D01*
X010336Y006262D01*
X011024Y006262D01*
X011178Y006326D01*
X011296Y006444D01*
X011360Y006598D01*
X011360Y006766D01*
X011296Y006920D01*
X011246Y006970D01*
X013114Y006970D01*
X013064Y006920D01*
X013000Y006766D01*
X013000Y006598D01*
X013064Y006444D01*
X013106Y006402D01*
X011593Y004890D01*
X011470Y004767D01*
X011470Y002390D01*
X011242Y002390D01*
X011296Y002444D01*
X011360Y002598D01*
X011360Y002766D01*
X011296Y002920D01*
X011178Y003038D01*
X011024Y003102D01*
X010336Y003102D01*
X010182Y003038D01*
X010064Y002920D01*
X010000Y002766D01*
X010000Y002598D01*
X010064Y002444D01*
X010118Y002390D01*
X008593Y002390D01*
X008007Y001804D01*
X007941Y001870D01*
X007771Y001940D01*
X007588Y001940D01*
X007419Y001870D01*
X007290Y001741D01*
X007220Y001571D01*
X007220Y000788D01*
X007273Y000660D01*
X007087Y000660D01*
X007140Y000788D01*
X007140Y001571D01*
X007070Y001741D01*
X006941Y001870D01*
X006771Y001940D01*
X006588Y001940D01*
X006419Y001870D01*
X006290Y001741D01*
X006220Y001571D01*
X006220Y000788D01*
X006273Y000660D01*
X006087Y000660D01*
X006140Y000788D01*
X006140Y001571D01*
X006070Y001741D01*
X005941Y001870D01*
X005771Y001940D01*
X005588Y001940D01*
X005419Y001870D01*
X005290Y001741D01*
X005220Y001571D01*
X005220Y000788D01*
X005273Y000660D01*
X000660Y000660D01*
X000660Y000814D02*
X001576Y000814D01*
X001573Y000816D02*
X001633Y000772D01*
X001700Y000738D01*
X001771Y000715D01*
X001846Y000703D01*
X002162Y000703D01*
X002162Y001162D01*
X002198Y001162D01*
X002198Y001198D01*
X002162Y001198D01*
X002162Y001657D01*
X001846Y001657D01*
X001771Y001645D01*
X001700Y001622D01*
X001633Y001588D01*
X001573Y001544D01*
X001519Y001491D01*
X001475Y001430D01*
X001441Y001363D01*
X001418Y001292D01*
X001406Y001218D01*
X001406Y001198D01*
X002162Y001198D01*
X002162Y001162D01*
X001406Y001162D01*
X001406Y001142D01*
X001418Y001068D01*
X001441Y000997D01*
X001475Y000930D01*
X001519Y000869D01*
X001573Y000816D01*
X001454Y000973D02*
X000660Y000973D01*
X000660Y001131D02*
X001408Y001131D01*
X001418Y001290D02*
X000660Y001290D01*
X000660Y001448D02*
X001488Y001448D01*
X001670Y001607D02*
X000660Y001607D01*
X000660Y001765D02*
X001691Y001765D01*
X001624Y001793D02*
X001792Y001723D01*
X002568Y001723D01*
X002736Y001793D01*
X002864Y001921D01*
X002934Y002089D01*
X002934Y002271D01*
X002864Y002439D01*
X002736Y002567D01*
X002568Y002637D01*
X001792Y002637D01*
X001624Y002567D01*
X001496Y002439D01*
X001476Y002390D01*
X001390Y002390D01*
X001390Y004253D01*
X001449Y004277D01*
X001583Y004411D01*
X001655Y004586D01*
X001655Y004774D01*
X001583Y004949D01*
X001449Y005083D01*
X001274Y005155D01*
X001086Y005155D01*
X000911Y005083D01*
X000777Y004949D01*
X000705Y004774D01*
X000705Y004586D01*
X000777Y004411D01*
X000911Y004277D01*
X000970Y004253D01*
X000970Y002093D01*
X001093Y001970D01*
X001476Y001970D01*
X001496Y001921D01*
X001624Y001793D01*
X001495Y001924D02*
X000660Y001924D01*
X000660Y002082D02*
X000981Y002082D01*
X000970Y002241D02*
X000660Y002241D01*
X000660Y002399D02*
X000970Y002399D01*
X000970Y002558D02*
X000660Y002558D01*
X000660Y002716D02*
X000970Y002716D01*
X000970Y002875D02*
X000660Y002875D01*
X000660Y003033D02*
X000970Y003033D01*
X000970Y003192D02*
X000660Y003192D01*
X000660Y003350D02*
X000970Y003350D01*
X000970Y003509D02*
X000660Y003509D01*
X000660Y003667D02*
X000970Y003667D01*
X000970Y003826D02*
X000660Y003826D01*
X000660Y003984D02*
X000970Y003984D01*
X000970Y004143D02*
X000660Y004143D01*
X000660Y004301D02*
X000887Y004301D01*
X000757Y004460D02*
X000660Y004460D01*
X000660Y004618D02*
X000705Y004618D01*
X000706Y004777D02*
X000660Y004777D01*
X000660Y004935D02*
X000771Y004935D01*
X000660Y005094D02*
X000937Y005094D01*
X000660Y005252D02*
X008811Y005252D01*
X008970Y005094D02*
X002467Y005094D01*
X002385Y005175D02*
X002180Y005175D01*
X002180Y004680D01*
X002675Y004680D01*
X002675Y004885D01*
X002385Y005175D01*
X002180Y005175D02*
X001975Y005175D01*
X001685Y004885D01*
X001685Y004680D01*
X002180Y004680D01*
X002180Y004680D01*
X002180Y004680D01*
X002675Y004680D01*
X002675Y004475D01*
X002385Y004185D01*
X002180Y004185D01*
X002180Y004680D01*
X002180Y004680D01*
X002180Y004680D01*
X002180Y005175D01*
X002180Y005094D02*
X002180Y005094D01*
X002180Y004935D02*
X002180Y004935D01*
X002180Y004777D02*
X002180Y004777D01*
X002180Y004680D02*
X001685Y004680D01*
X001685Y004475D01*
X001975Y004185D01*
X002180Y004185D01*
X002180Y004680D01*
X002180Y004618D02*
X002180Y004618D01*
X002180Y004460D02*
X002180Y004460D01*
X002180Y004301D02*
X002180Y004301D01*
X002501Y004301D02*
X009762Y004301D01*
X009604Y004460D02*
X002660Y004460D01*
X002675Y004618D02*
X009445Y004618D01*
X009287Y004777D02*
X002675Y004777D01*
X002625Y004935D02*
X009128Y004935D01*
X009405Y005252D02*
X011955Y005252D01*
X011797Y005094D02*
X011044Y005094D01*
X011024Y005102D02*
X010336Y005102D01*
X010182Y005038D01*
X010064Y004920D01*
X010000Y004766D01*
X010000Y004657D01*
X008390Y006267D01*
X008267Y006390D01*
X007290Y006390D01*
X007375Y006475D01*
X007375Y006680D01*
X007375Y006885D01*
X007085Y007175D01*
X006880Y007175D01*
X006880Y006680D01*
X006880Y006680D01*
X007375Y006680D01*
X006880Y006680D01*
X006880Y006680D01*
X006880Y007175D01*
X006675Y007175D01*
X006385Y006885D01*
X006385Y006772D01*
X004890Y008267D01*
X004890Y013970D01*
X005144Y013970D01*
X005210Y013809D01*
X005339Y013680D01*
X005508Y013610D01*
X006291Y013610D01*
X006461Y013680D01*
X006590Y013809D01*
X006660Y013978D01*
X006660Y014161D01*
X006590Y014331D01*
X006461Y014460D01*
X006291Y014530D01*
X005508Y014530D01*
X005339Y014460D01*
X005269Y014390D01*
X004593Y014390D01*
X004470Y014267D01*
X004470Y008093D01*
X004593Y007970D01*
X005408Y007155D01*
X005386Y007155D01*
X005211Y007083D01*
X005077Y006949D01*
X005024Y006821D01*
X004970Y006767D01*
X004593Y006390D01*
X003767Y006390D01*
X003737Y006420D01*
X003771Y006420D01*
X003941Y006490D01*
X004070Y006619D01*
X004140Y006788D01*
X004140Y007571D01*
X004070Y007741D01*
X003941Y007870D01*
X003771Y007940D01*
X003588Y007940D01*
X003419Y007870D01*
X003290Y007741D01*
X003220Y007571D01*
X003220Y006937D01*
X003140Y007017D01*
X003140Y007571D01*
X003070Y007741D01*
X002941Y007870D01*
X002771Y007940D01*
X002588Y007940D01*
X002419Y007870D01*
X002290Y007741D01*
X002220Y007571D01*
X002220Y006788D01*
X002290Y006619D01*
X002419Y006490D01*
X002588Y006420D01*
X002771Y006420D01*
X002941Y006490D01*
X003007Y006556D01*
X003470Y006093D01*
X003593Y005970D01*
X004767Y005970D01*
X005143Y006346D01*
X005211Y006277D01*
X005386Y006205D01*
X005574Y006205D01*
X005749Y006277D01*
X005883Y006411D01*
X005955Y006586D01*
X005955Y006608D01*
X006593Y005970D01*
X008093Y005970D01*
X010104Y003959D01*
X010064Y003920D01*
X010000Y003766D01*
X010000Y003598D01*
X010064Y003444D01*
X010182Y003326D01*
X010336Y003262D01*
X011024Y003262D01*
X011178Y003326D01*
X011296Y003444D01*
X011360Y003598D01*
X011360Y003766D01*
X011296Y003920D01*
X011178Y004038D01*
X011024Y004102D01*
X010555Y004102D01*
X010395Y004262D01*
X011024Y004262D01*
X011178Y004326D01*
X011296Y004444D01*
X011360Y004598D01*
X011360Y004766D01*
X011296Y004920D01*
X011178Y005038D01*
X011024Y005102D01*
X011024Y005262D02*
X011178Y005326D01*
X011296Y005444D01*
X011360Y005598D01*
X011360Y005766D01*
X011296Y005920D01*
X011178Y006038D01*
X011024Y006102D01*
X010336Y006102D01*
X010182Y006038D01*
X010064Y005920D01*
X010000Y005766D01*
X010000Y005598D01*
X010064Y005444D01*
X010182Y005326D01*
X010336Y005262D01*
X011024Y005262D01*
X011263Y005411D02*
X012114Y005411D01*
X012272Y005569D02*
X011348Y005569D01*
X011360Y005728D02*
X012431Y005728D01*
X012589Y005886D02*
X011310Y005886D01*
X011162Y006045D02*
X012748Y006045D01*
X012906Y006203D02*
X008454Y006203D01*
X008612Y006045D02*
X010198Y006045D01*
X010050Y005886D02*
X008771Y005886D01*
X008929Y005728D02*
X010000Y005728D01*
X010012Y005569D02*
X009088Y005569D01*
X009246Y005411D02*
X010097Y005411D01*
X010316Y005094D02*
X009563Y005094D01*
X009722Y004935D02*
X010079Y004935D01*
X010005Y004777D02*
X009880Y004777D01*
X009921Y004143D02*
X001390Y004143D01*
X001390Y003984D02*
X010079Y003984D01*
X010025Y003826D02*
X001390Y003826D01*
X001390Y003667D02*
X010000Y003667D01*
X010037Y003509D02*
X001390Y003509D01*
X001390Y003350D02*
X010158Y003350D01*
X010177Y003033D02*
X001390Y003033D01*
X001390Y002875D02*
X010045Y002875D01*
X010000Y002716D02*
X001390Y002716D01*
X001390Y002558D02*
X001615Y002558D01*
X001479Y002399D02*
X001390Y002399D01*
X001390Y003192D02*
X011470Y003192D01*
X011470Y003350D02*
X011202Y003350D01*
X011323Y003509D02*
X011470Y003509D01*
X011470Y003667D02*
X011360Y003667D01*
X011335Y003826D02*
X011470Y003826D01*
X011470Y003984D02*
X011232Y003984D01*
X011470Y004143D02*
X010514Y004143D01*
X011118Y004301D02*
X011470Y004301D01*
X011470Y004460D02*
X011302Y004460D01*
X011360Y004618D02*
X011470Y004618D01*
X011480Y004777D02*
X011355Y004777D01*
X011281Y004935D02*
X011638Y004935D01*
X012073Y004777D02*
X012480Y004777D01*
X012638Y004935D02*
X012232Y004935D01*
X012390Y005094D02*
X012797Y005094D01*
X012955Y005252D02*
X012549Y005252D01*
X012707Y005411D02*
X013097Y005411D01*
X013012Y005569D02*
X012866Y005569D01*
X013549Y005252D02*
X015163Y005252D01*
X015196Y005235D02*
X015268Y005212D01*
X015342Y005200D01*
X015660Y005200D01*
X015660Y005660D01*
X015700Y005660D01*
X015700Y005700D01*
X015660Y005700D01*
X015660Y006160D01*
X015342Y006160D01*
X015268Y006148D01*
X015196Y006125D01*
X015128Y006091D01*
X015067Y006046D01*
X015014Y005993D01*
X014969Y005932D01*
X014935Y005864D01*
X014912Y005792D01*
X014900Y005718D01*
X014900Y005700D01*
X015660Y005700D01*
X015660Y005660D01*
X014900Y005660D01*
X014900Y005642D01*
X014912Y005568D01*
X014935Y005496D01*
X014969Y005428D01*
X015014Y005367D01*
X015067Y005314D01*
X015128Y005269D01*
X015196Y005235D01*
X015288Y005140D02*
X015119Y005070D01*
X014990Y004941D01*
X014920Y004771D01*
X014920Y004588D01*
X014990Y004419D01*
X015119Y004290D01*
X015288Y004220D01*
X016071Y004220D01*
X016241Y004290D01*
X016370Y004419D01*
X016440Y004588D01*
X016440Y004771D01*
X016370Y004941D01*
X016241Y005070D01*
X016071Y005140D01*
X015288Y005140D01*
X015176Y005094D02*
X014044Y005094D01*
X014281Y004935D02*
X014988Y004935D01*
X014922Y004777D02*
X014355Y004777D01*
X014360Y004618D02*
X014920Y004618D01*
X014973Y004460D02*
X014302Y004460D01*
X014356Y004301D02*
X015108Y004301D01*
X015033Y003984D02*
X014673Y003984D01*
X014514Y004143D02*
X016570Y004143D01*
X016570Y004301D02*
X016252Y004301D01*
X016387Y004460D02*
X016570Y004460D01*
X016570Y004618D02*
X016440Y004618D01*
X016438Y004777D02*
X016570Y004777D01*
X016570Y004935D02*
X016372Y004935D01*
X016184Y005094D02*
X016570Y005094D01*
X016570Y005252D02*
X016197Y005252D01*
X016164Y005235D02*
X016232Y005269D01*
X016293Y005314D01*
X016346Y005367D01*
X016391Y005428D01*
X016425Y005496D01*
X016448Y005568D01*
X016460Y005642D01*
X016460Y005660D01*
X015700Y005660D01*
X015700Y005200D01*
X016018Y005200D01*
X016092Y005212D01*
X016164Y005235D01*
X016378Y005411D02*
X016570Y005411D01*
X016570Y005569D02*
X016448Y005569D01*
X016460Y005700D02*
X016460Y005718D01*
X016448Y005792D01*
X016425Y005864D01*
X016391Y005932D01*
X016346Y005993D01*
X016293Y006046D01*
X016232Y006091D01*
X016164Y006125D01*
X016092Y006148D01*
X016018Y006160D01*
X015700Y006160D01*
X015700Y005700D01*
X016460Y005700D01*
X016458Y005728D02*
X016570Y005728D01*
X016570Y005886D02*
X016414Y005886D01*
X016294Y006045D02*
X016570Y006045D01*
X016570Y006203D02*
X013500Y006203D01*
X013065Y006362D02*
X011214Y006362D01*
X011328Y006520D02*
X013032Y006520D01*
X013000Y006679D02*
X011360Y006679D01*
X011330Y006837D02*
X013030Y006837D01*
X013451Y007154D02*
X016570Y007154D01*
X016570Y006996D02*
X014220Y006996D01*
X014330Y006837D02*
X016570Y006837D01*
X016570Y006679D02*
X014360Y006679D01*
X014328Y006520D02*
X016570Y006520D01*
X016570Y006362D02*
X014214Y006362D01*
X014162Y006045D02*
X015066Y006045D01*
X014946Y005886D02*
X014310Y005886D01*
X014360Y005728D02*
X014902Y005728D01*
X014912Y005569D02*
X014348Y005569D01*
X014263Y005411D02*
X014982Y005411D01*
X015660Y005411D02*
X015700Y005411D01*
X015700Y005569D02*
X015660Y005569D01*
X015660Y005728D02*
X015700Y005728D01*
X015700Y005886D02*
X015660Y005886D01*
X015660Y006045D02*
X015700Y006045D01*
X015700Y005252D02*
X015660Y005252D01*
X016327Y003984D02*
X016570Y003984D01*
X016570Y003826D02*
X016418Y003826D01*
X016440Y003667D02*
X016570Y003667D01*
X016570Y003509D02*
X016407Y003509D01*
X016301Y003350D02*
X016570Y003350D01*
X016570Y003192D02*
X015465Y003192D01*
X014963Y002875D02*
X014315Y002875D01*
X014360Y002716D02*
X014920Y002716D01*
X014933Y002558D02*
X014343Y002558D01*
X014251Y002399D02*
X015010Y002399D01*
X015239Y002241D02*
X011890Y002241D01*
X011890Y002399D02*
X013109Y002399D01*
X013017Y002558D02*
X011890Y002558D01*
X011890Y002716D02*
X013000Y002716D01*
X013045Y002875D02*
X011890Y002875D01*
X011890Y003033D02*
X012530Y003033D01*
X012470Y003192D02*
X011890Y003192D01*
X011890Y003350D02*
X012470Y003350D01*
X012470Y003509D02*
X011890Y003509D01*
X011890Y003667D02*
X012470Y003667D01*
X012470Y003826D02*
X011890Y003826D01*
X011890Y003984D02*
X012470Y003984D01*
X012470Y004143D02*
X011890Y004143D01*
X011890Y004301D02*
X012470Y004301D01*
X012470Y004460D02*
X011890Y004460D01*
X011915Y004618D02*
X012470Y004618D01*
X011470Y003033D02*
X011183Y003033D01*
X011315Y002875D02*
X011470Y002875D01*
X011470Y002716D02*
X011360Y002716D01*
X011343Y002558D02*
X011470Y002558D01*
X011470Y002399D02*
X011251Y002399D01*
X011292Y001924D02*
X013068Y001924D01*
X013064Y001920D02*
X013000Y001766D01*
X013000Y001598D01*
X013064Y001444D01*
X013182Y001326D01*
X013336Y001262D01*
X014024Y001262D01*
X014178Y001326D01*
X014296Y001444D01*
X014360Y001598D01*
X014360Y001766D01*
X014296Y001920D01*
X014178Y002038D01*
X014024Y002102D01*
X013336Y002102D01*
X013182Y002038D01*
X013064Y001920D01*
X013000Y001765D02*
X011360Y001765D01*
X011360Y001607D02*
X013000Y001607D01*
X013062Y001448D02*
X011298Y001448D01*
X011090Y001290D02*
X013270Y001290D01*
X013288Y002082D02*
X011879Y002082D01*
X010270Y001290D02*
X009160Y001290D01*
X009160Y001448D02*
X010062Y001448D01*
X010000Y001607D02*
X009144Y001607D01*
X009066Y001765D02*
X010000Y001765D01*
X010068Y001924D02*
X008867Y001924D01*
X008444Y002241D02*
X002934Y002241D01*
X002931Y002082D02*
X008285Y002082D01*
X008127Y001924D02*
X007811Y001924D01*
X007549Y001924D02*
X006811Y001924D01*
X007046Y001765D02*
X007314Y001765D01*
X007234Y001607D02*
X007126Y001607D01*
X007140Y001448D02*
X007220Y001448D01*
X007220Y001290D02*
X007140Y001290D01*
X007140Y001131D02*
X007220Y001131D01*
X007220Y000973D02*
X007140Y000973D01*
X007140Y000814D02*
X007220Y000814D01*
X008087Y000660D02*
X008140Y000788D01*
X008140Y001343D01*
X008200Y001403D01*
X008200Y001200D01*
X008660Y001200D01*
X008660Y001160D01*
X008200Y001160D01*
X008200Y000842D01*
X008212Y000768D01*
X008235Y000696D01*
X008253Y000660D01*
X008087Y000660D01*
X008140Y000814D02*
X008204Y000814D01*
X008200Y000973D02*
X008140Y000973D01*
X008140Y001131D02*
X008200Y001131D01*
X008200Y001290D02*
X008140Y001290D01*
X009160Y001131D02*
X016570Y001131D01*
X016570Y000973D02*
X009160Y000973D01*
X009156Y000814D02*
X016570Y000814D01*
X016570Y001290D02*
X016239Y001290D01*
X016241Y001290D02*
X016370Y001419D01*
X016440Y001588D01*
X016440Y001771D01*
X016370Y001941D01*
X016241Y002070D01*
X016071Y002140D01*
X015288Y002140D01*
X015119Y002070D01*
X014990Y001941D01*
X014920Y001771D01*
X014920Y001588D01*
X014990Y001419D01*
X015119Y001290D01*
X015288Y001220D01*
X016071Y001220D01*
X016241Y001290D01*
X016382Y001448D02*
X016570Y001448D01*
X016570Y001607D02*
X016440Y001607D01*
X016440Y001765D02*
X016570Y001765D01*
X016570Y001924D02*
X016377Y001924D01*
X016212Y002082D02*
X016570Y002082D01*
X016570Y002241D02*
X016121Y002241D01*
X016350Y002399D02*
X016570Y002399D01*
X016570Y002558D02*
X016427Y002558D01*
X016440Y002716D02*
X016570Y002716D01*
X016570Y002875D02*
X016397Y002875D01*
X016278Y003033D02*
X016570Y003033D01*
X015148Y002082D02*
X014072Y002082D01*
X014292Y001924D02*
X014983Y001924D01*
X014920Y001765D02*
X014360Y001765D01*
X014360Y001607D02*
X014920Y001607D01*
X014978Y001448D02*
X014298Y001448D01*
X014090Y001290D02*
X015121Y001290D01*
X010109Y002399D02*
X002881Y002399D01*
X002745Y002558D02*
X010017Y002558D01*
X008653Y005411D02*
X000660Y005411D01*
X000660Y005569D02*
X008494Y005569D01*
X008336Y005728D02*
X000660Y005728D01*
X000660Y005886D02*
X008177Y005886D01*
X008295Y006362D02*
X010146Y006362D01*
X010032Y006520D02*
X007375Y006520D01*
X007375Y006679D02*
X010000Y006679D01*
X010030Y006837D02*
X008293Y006837D01*
X008067Y006837D02*
X007375Y006837D01*
X007265Y006996D02*
X007867Y006996D01*
X007820Y007154D02*
X007106Y007154D01*
X006880Y007154D02*
X006880Y007154D01*
X006880Y006996D02*
X006880Y006996D01*
X006880Y006837D02*
X006880Y006837D01*
X006654Y007154D02*
X006003Y007154D01*
X006161Y006996D02*
X006495Y006996D01*
X006385Y006837D02*
X006320Y006837D01*
X006043Y006520D02*
X005928Y006520D01*
X005833Y006362D02*
X006202Y006362D01*
X006360Y006203D02*
X005000Y006203D01*
X004841Y006045D02*
X006519Y006045D01*
X005383Y007154D02*
X004140Y007154D01*
X004140Y006996D02*
X005124Y006996D01*
X005031Y006837D02*
X004140Y006837D01*
X004094Y006679D02*
X004882Y006679D01*
X004723Y006520D02*
X003971Y006520D01*
X003519Y006045D02*
X000660Y006045D01*
X000660Y006203D02*
X003360Y006203D01*
X003202Y006362D02*
X000660Y006362D01*
X000660Y006520D02*
X001361Y006520D01*
X001367Y006514D02*
X001428Y006469D01*
X001496Y006435D01*
X001568Y006412D01*
X001642Y006400D01*
X001660Y006400D01*
X001660Y007160D01*
X001700Y007160D01*
X001700Y007200D01*
X002160Y007200D01*
X002160Y007518D01*
X002148Y007592D01*
X002125Y007664D01*
X002091Y007732D01*
X002046Y007793D01*
X001993Y007846D01*
X001932Y007891D01*
X001864Y007925D01*
X001792Y007948D01*
X001718Y007960D01*
X001700Y007960D01*
X001700Y007200D01*
X001660Y007200D01*
X001660Y007960D01*
X001642Y007960D01*
X001568Y007948D01*
X001496Y007925D01*
X001428Y007891D01*
X001367Y007846D01*
X001314Y007793D01*
X001269Y007732D01*
X001235Y007664D01*
X001212Y007592D01*
X001200Y007518D01*
X001200Y007200D01*
X001660Y007200D01*
X001660Y007160D01*
X001200Y007160D01*
X001200Y006842D01*
X001212Y006768D01*
X001235Y006696D01*
X001269Y006628D01*
X001314Y006567D01*
X001367Y006514D01*
X001244Y006679D02*
X000660Y006679D01*
X000660Y006837D02*
X001201Y006837D01*
X001200Y006996D02*
X000660Y006996D01*
X000660Y007154D02*
X001200Y007154D01*
X001200Y007313D02*
X000660Y007313D01*
X000660Y007471D02*
X001200Y007471D01*
X001224Y007630D02*
X000660Y007630D01*
X000660Y007788D02*
X001310Y007788D01*
X001562Y007947D02*
X000660Y007947D01*
X000660Y008105D02*
X004470Y008105D01*
X004470Y008264D02*
X000660Y008264D01*
X000660Y008422D02*
X004470Y008422D01*
X004470Y008581D02*
X000660Y008581D01*
X000660Y008739D02*
X004470Y008739D01*
X004470Y008898D02*
X000660Y008898D01*
X000660Y009056D02*
X004470Y009056D01*
X004470Y009215D02*
X000660Y009215D01*
X000660Y009373D02*
X004470Y009373D01*
X004470Y009532D02*
X000660Y009532D01*
X000660Y009690D02*
X004470Y009690D01*
X004470Y009849D02*
X000660Y009849D01*
X000660Y010007D02*
X004470Y010007D01*
X004470Y010166D02*
X000660Y010166D01*
X000660Y010324D02*
X004470Y010324D01*
X004470Y010483D02*
X000660Y010483D01*
X000660Y010641D02*
X004470Y010641D01*
X004470Y010800D02*
X000660Y010800D01*
X000660Y010958D02*
X004470Y010958D01*
X004470Y011117D02*
X000660Y011117D01*
X000660Y011275D02*
X004470Y011275D01*
X004470Y011434D02*
X003219Y011434D01*
X003563Y011592D02*
X004470Y011592D01*
X004470Y011751D02*
X003797Y011751D01*
X003956Y011909D02*
X004470Y011909D01*
X004470Y012068D02*
X004093Y012068D01*
X004185Y012226D02*
X004470Y012226D01*
X004470Y012385D02*
X004276Y012385D01*
X004327Y012543D02*
X004470Y012543D01*
X004470Y012702D02*
X004370Y012702D01*
X004410Y012860D02*
X004470Y012860D01*
X004470Y013019D02*
X004410Y013019D01*
X004410Y013177D02*
X004470Y013177D01*
X004470Y013336D02*
X004403Y013336D01*
X004360Y013494D02*
X004470Y013494D01*
X004470Y013653D02*
X004318Y013653D01*
X004256Y013811D02*
X004470Y013811D01*
X004470Y013970D02*
X004164Y013970D01*
X004073Y014128D02*
X004470Y014128D01*
X004490Y014287D02*
X003920Y014287D01*
X003762Y014445D02*
X005324Y014445D01*
X005144Y013970D02*
X004890Y013970D01*
X004890Y013811D02*
X005209Y013811D01*
X005406Y013653D02*
X004890Y013653D01*
X004890Y013494D02*
X016570Y013494D01*
X016570Y013336D02*
X004890Y013336D01*
X004890Y013177D02*
X016570Y013177D01*
X016570Y013019D02*
X004890Y013019D01*
X004890Y012860D02*
X016570Y012860D01*
X016480Y012702D02*
X016440Y012702D01*
X016440Y012543D02*
X016480Y012543D01*
X016480Y012385D02*
X016440Y012385D01*
X016440Y012270D02*
X015680Y012270D01*
X015680Y012252D01*
X015692Y012178D01*
X015715Y012106D01*
X015749Y012038D01*
X015794Y011977D01*
X015847Y011924D01*
X015908Y011879D01*
X015976Y011845D01*
X016048Y011822D01*
X016122Y011810D01*
X016440Y011810D01*
X016440Y012270D01*
X016440Y012226D02*
X016480Y012226D01*
X016480Y012068D02*
X016440Y012068D01*
X016440Y011909D02*
X016480Y011909D01*
X016570Y011751D02*
X004890Y011751D01*
X004890Y011909D02*
X005308Y011909D01*
X005287Y011924D02*
X005348Y011879D01*
X005416Y011845D01*
X005488Y011822D01*
X005562Y011810D01*
X005880Y011810D01*
X005880Y012270D01*
X005920Y012270D01*
X005920Y012310D01*
X005880Y012310D01*
X005880Y012770D01*
X005562Y012770D01*
X005488Y012758D01*
X005416Y012735D01*
X005348Y012701D01*
X005287Y012656D01*
X005234Y012603D01*
X005189Y012542D01*
X005155Y012474D01*
X005132Y012402D01*
X005120Y012328D01*
X005120Y012310D01*
X005880Y012310D01*
X005880Y012270D01*
X005120Y012270D01*
X005120Y012252D01*
X005132Y012178D01*
X005155Y012106D01*
X005189Y012038D01*
X005234Y011977D01*
X005287Y011924D01*
X005175Y012068D02*
X004890Y012068D01*
X004890Y012226D02*
X005124Y012226D01*
X005129Y012385D02*
X004890Y012385D01*
X004890Y012543D02*
X005191Y012543D01*
X005350Y012702D02*
X004890Y012702D01*
X005880Y012702D02*
X005920Y012702D01*
X005920Y012770D02*
X005920Y012310D01*
X006680Y012310D01*
X006680Y012328D01*
X006668Y012402D01*
X006645Y012474D01*
X006611Y012542D01*
X006566Y012603D01*
X006513Y012656D01*
X006452Y012701D01*
X006384Y012735D01*
X006312Y012758D01*
X006238Y012770D01*
X005920Y012770D01*
X005920Y012543D02*
X005880Y012543D01*
X005880Y012385D02*
X005920Y012385D01*
X005920Y012270D02*
X006680Y012270D01*
X006680Y012252D01*
X006668Y012178D01*
X006645Y012106D01*
X006611Y012038D01*
X006566Y011977D01*
X006513Y011924D01*
X006452Y011879D01*
X006384Y011845D01*
X006312Y011822D01*
X006238Y011810D01*
X005920Y011810D01*
X005920Y012270D01*
X005920Y012226D02*
X005880Y012226D01*
X005880Y012068D02*
X005920Y012068D01*
X005920Y011909D02*
X005880Y011909D01*
X006492Y011909D02*
X007868Y011909D01*
X007847Y011924D02*
X007908Y011879D01*
X007976Y011845D01*
X008048Y011822D01*
X008122Y011810D01*
X008440Y011810D01*
X008440Y012270D01*
X008480Y012270D01*
X008480Y012310D01*
X008440Y012310D01*
X008440Y012770D01*
X008122Y012770D01*
X008048Y012758D01*
X007976Y012735D01*
X007908Y012701D01*
X007847Y012656D01*
X007794Y012603D01*
X007749Y012542D01*
X007715Y012474D01*
X007692Y012402D01*
X007680Y012328D01*
X007680Y012310D01*
X008440Y012310D01*
X008440Y012270D01*
X007680Y012270D01*
X007680Y012252D01*
X007692Y012178D01*
X007715Y012106D01*
X007749Y012038D01*
X007794Y011977D01*
X007847Y011924D01*
X007735Y012068D02*
X006625Y012068D01*
X006676Y012226D02*
X007684Y012226D01*
X007689Y012385D02*
X006671Y012385D01*
X006609Y012543D02*
X007751Y012543D01*
X007910Y012702D02*
X006450Y012702D01*
X006394Y013653D02*
X007966Y013653D01*
X007899Y013680D02*
X008068Y013610D01*
X008851Y013610D01*
X009021Y013680D01*
X009150Y013809D01*
X009180Y013882D01*
X009210Y013809D01*
X009339Y013680D01*
X009508Y013610D01*
X010291Y013610D01*
X010461Y013680D01*
X010590Y013809D01*
X010660Y013978D01*
X010660Y014161D01*
X010590Y014331D01*
X010461Y014460D01*
X010291Y014530D01*
X009508Y014530D01*
X009339Y014460D01*
X009210Y014331D01*
X009180Y014258D01*
X009150Y014331D01*
X009021Y014460D01*
X008851Y014530D01*
X008068Y014530D01*
X007899Y014460D01*
X007770Y014331D01*
X007700Y014161D01*
X007700Y013978D01*
X007770Y013809D01*
X007899Y013680D01*
X007769Y013811D02*
X006591Y013811D01*
X006656Y013970D02*
X007704Y013970D01*
X007700Y014128D02*
X006660Y014128D01*
X006608Y014287D02*
X007752Y014287D01*
X007884Y014445D02*
X006476Y014445D01*
X008480Y012770D02*
X008480Y012310D01*
X009880Y012310D01*
X009880Y012770D01*
X009562Y012770D01*
X009488Y012758D01*
X009416Y012735D01*
X009348Y012701D01*
X009287Y012656D01*
X009234Y012603D01*
X009189Y012542D01*
X009180Y012523D01*
X009171Y012542D01*
X009126Y012603D01*
X009073Y012656D01*
X009012Y012701D01*
X008944Y012735D01*
X008872Y012758D01*
X008798Y012770D01*
X008480Y012770D01*
X008480Y012702D02*
X008440Y012702D01*
X008440Y012543D02*
X008480Y012543D01*
X008480Y012385D02*
X008440Y012385D01*
X008480Y012270D02*
X009120Y012270D01*
X009880Y012270D01*
X009920Y012270D01*
X009920Y012310D01*
X009880Y012310D01*
X009880Y012270D01*
X009880Y011810D01*
X009562Y011810D01*
X009488Y011822D01*
X009416Y011845D01*
X009348Y011879D01*
X009287Y011924D01*
X009234Y011977D01*
X009189Y012038D01*
X009180Y012057D01*
X009171Y012038D01*
X009126Y011977D01*
X009073Y011924D01*
X009012Y011879D01*
X008944Y011845D01*
X008872Y011822D01*
X008798Y011810D01*
X008480Y011810D01*
X008480Y012270D01*
X008480Y012226D02*
X008440Y012226D01*
X008440Y012068D02*
X008480Y012068D01*
X008480Y011909D02*
X008440Y011909D01*
X009052Y011909D02*
X009308Y011909D01*
X009880Y011909D02*
X009920Y011909D01*
X009920Y011810D02*
X010238Y011810D01*
X010312Y011822D01*
X010384Y011845D01*
X010452Y011879D01*
X010513Y011924D01*
X010566Y011977D01*
X010611Y012038D01*
X010645Y012106D01*
X010668Y012178D01*
X010680Y012252D01*
X010680Y012270D01*
X009920Y012270D01*
X009920Y011810D01*
X009920Y012068D02*
X009880Y012068D01*
X009880Y012226D02*
X009920Y012226D01*
X009920Y012310D02*
X010680Y012310D01*
X010680Y012328D01*
X010668Y012402D01*
X010645Y012474D01*
X010611Y012542D01*
X010566Y012603D01*
X010513Y012656D01*
X010452Y012701D01*
X010384Y012735D01*
X010312Y012758D01*
X010238Y012770D01*
X009920Y012770D01*
X009920Y012310D01*
X009920Y012385D02*
X009880Y012385D01*
X009880Y012543D02*
X009920Y012543D01*
X009920Y012702D02*
X009880Y012702D01*
X009350Y012702D02*
X009010Y012702D01*
X009169Y012543D02*
X009191Y012543D01*
X009406Y013653D02*
X008954Y013653D01*
X009151Y013811D02*
X009209Y013811D01*
X009192Y014287D02*
X009168Y014287D01*
X009036Y014445D02*
X009324Y014445D01*
X010394Y013653D02*
X011966Y013653D01*
X011899Y013680D02*
X012068Y013610D01*
X012851Y013610D01*
X013021Y013680D01*
X013150Y013809D01*
X013180Y013882D01*
X013210Y013809D01*
X013339Y013680D01*
X013508Y013610D01*
X014291Y013610D01*
X014461Y013680D01*
X014590Y013809D01*
X014660Y013978D01*
X014660Y014161D01*
X014590Y014331D01*
X014461Y014460D01*
X014291Y014530D01*
X013508Y014530D01*
X013339Y014460D01*
X013210Y014331D01*
X013180Y014258D01*
X013150Y014331D01*
X013021Y014460D01*
X012851Y014530D01*
X012068Y014530D01*
X011899Y014460D01*
X011770Y014331D01*
X011700Y014161D01*
X011700Y013978D01*
X011770Y013809D01*
X011899Y013680D01*
X011769Y013811D02*
X010591Y013811D01*
X010656Y013970D02*
X011704Y013970D01*
X011700Y014128D02*
X010660Y014128D01*
X010608Y014287D02*
X011752Y014287D01*
X011884Y014445D02*
X010476Y014445D01*
X010450Y012702D02*
X011910Y012702D01*
X011908Y012701D02*
X011847Y012656D01*
X011794Y012603D01*
X011749Y012542D01*
X011715Y012474D01*
X011692Y012402D01*
X011680Y012328D01*
X011680Y012310D01*
X012440Y012310D01*
X012440Y012770D01*
X012122Y012770D01*
X012048Y012758D01*
X011976Y012735D01*
X011908Y012701D01*
X011751Y012543D02*
X010609Y012543D01*
X010671Y012385D02*
X011689Y012385D01*
X011680Y012270D02*
X011680Y012252D01*
X011692Y012178D01*
X011715Y012106D01*
X011749Y012038D01*
X011794Y011977D01*
X011847Y011924D01*
X011908Y011879D01*
X011976Y011845D01*
X012048Y011822D01*
X012122Y011810D01*
X012440Y011810D01*
X012440Y012270D01*
X012480Y012270D01*
X012480Y012310D01*
X012440Y012310D01*
X012440Y012270D01*
X011680Y012270D01*
X011684Y012226D02*
X010676Y012226D01*
X010625Y012068D02*
X011735Y012068D01*
X011868Y011909D02*
X010492Y011909D01*
X010336Y011102D02*
X010182Y011038D01*
X010064Y010920D01*
X010000Y010766D01*
X010000Y010598D01*
X010064Y010444D01*
X010182Y010326D01*
X010336Y010262D01*
X011024Y010262D01*
X011178Y010326D01*
X011296Y010444D01*
X011360Y010598D01*
X011360Y010766D01*
X011296Y010920D01*
X011178Y011038D01*
X011024Y011102D01*
X010336Y011102D01*
X010102Y010958D02*
X004890Y010958D01*
X004890Y010800D02*
X010014Y010800D01*
X010000Y010641D02*
X004890Y010641D01*
X004890Y010483D02*
X010048Y010483D01*
X010187Y010324D02*
X004890Y010324D01*
X004890Y010166D02*
X013869Y010166D01*
X013680Y010242D02*
X013680Y010682D01*
X013680Y010682D01*
X013680Y010242D01*
X013680Y010324D02*
X013680Y010324D01*
X013680Y010483D02*
X013680Y010483D01*
X013680Y010641D02*
X013680Y010641D01*
X013680Y010800D02*
X013680Y010800D01*
X013680Y010958D02*
X013680Y010958D01*
X013680Y011117D02*
X013680Y011117D01*
X013351Y011117D02*
X004890Y011117D01*
X004890Y011275D02*
X014478Y011275D01*
X014470Y011117D02*
X014009Y011117D01*
X014283Y010958D02*
X014470Y010958D01*
X014470Y010800D02*
X014364Y010800D01*
X014238Y011810D02*
X013920Y011810D01*
X013920Y012270D01*
X013920Y012310D01*
X013880Y012310D01*
X013880Y012770D01*
X013562Y012770D01*
X013488Y012758D01*
X013416Y012735D01*
X013348Y012701D01*
X013287Y012656D01*
X013234Y012603D01*
X013189Y012542D01*
X013180Y012523D01*
X013171Y012542D01*
X013126Y012603D01*
X013073Y012656D01*
X013012Y012701D01*
X012944Y012735D01*
X012872Y012758D01*
X012798Y012770D01*
X012480Y012770D01*
X012480Y012310D01*
X013120Y012310D01*
X013880Y012310D01*
X013880Y012270D01*
X013920Y012270D01*
X014680Y012270D01*
X014680Y012252D01*
X014668Y012178D01*
X014645Y012106D01*
X014611Y012038D01*
X014566Y011977D01*
X014513Y011924D01*
X014452Y011879D01*
X014384Y011845D01*
X014312Y011822D01*
X014238Y011810D01*
X013920Y011909D02*
X013880Y011909D01*
X013880Y011810D02*
X013562Y011810D01*
X013488Y011822D01*
X013416Y011845D01*
X013348Y011879D01*
X013287Y011924D01*
X013234Y011977D01*
X013189Y012038D01*
X013180Y012057D01*
X013171Y012038D01*
X013126Y011977D01*
X013073Y011924D01*
X013012Y011879D01*
X012944Y011845D01*
X012872Y011822D01*
X012798Y011810D01*
X012480Y011810D01*
X012480Y012270D01*
X013880Y012270D01*
X013880Y011810D01*
X013880Y012068D02*
X013920Y012068D01*
X013920Y012226D02*
X013880Y012226D01*
X013920Y012310D02*
X014680Y012310D01*
X014680Y012328D01*
X014668Y012402D01*
X014645Y012474D01*
X014611Y012542D01*
X014566Y012603D01*
X014513Y012656D01*
X014452Y012701D01*
X014384Y012735D01*
X014312Y012758D01*
X014238Y012770D01*
X013920Y012770D01*
X013920Y012310D01*
X013920Y012385D02*
X013880Y012385D01*
X013880Y012543D02*
X013920Y012543D01*
X013920Y012702D02*
X013880Y012702D01*
X013350Y012702D02*
X013010Y012702D01*
X013169Y012543D02*
X013191Y012543D01*
X013308Y011909D02*
X013052Y011909D01*
X012480Y011909D02*
X012440Y011909D01*
X012440Y012068D02*
X012480Y012068D01*
X012480Y012226D02*
X012440Y012226D01*
X012440Y012385D02*
X012480Y012385D01*
X012480Y012543D02*
X012440Y012543D01*
X012440Y012702D02*
X012480Y012702D01*
X012954Y013653D02*
X013406Y013653D01*
X013209Y013811D02*
X013151Y013811D01*
X013168Y014287D02*
X013192Y014287D01*
X013324Y014445D02*
X013036Y014445D01*
X014394Y013653D02*
X015966Y013653D01*
X015769Y013811D02*
X014591Y013811D01*
X014656Y013970D02*
X015704Y013970D01*
X015700Y014128D02*
X014660Y014128D01*
X014608Y014287D02*
X015752Y014287D01*
X015884Y014445D02*
X014476Y014445D01*
X014450Y012702D02*
X015910Y012702D01*
X015751Y012543D02*
X014609Y012543D01*
X014671Y012385D02*
X015689Y012385D01*
X015684Y012226D02*
X014676Y012226D01*
X014625Y012068D02*
X015735Y012068D01*
X015868Y011909D02*
X014492Y011909D01*
X015484Y010970D02*
X015593Y010970D01*
X015772Y010791D01*
X015760Y010764D01*
X015760Y010596D01*
X015824Y010442D01*
X015942Y010324D01*
X015807Y010483D02*
X015553Y010483D01*
X015536Y010442D02*
X015600Y010596D01*
X015600Y010764D01*
X015536Y010918D01*
X015484Y010970D01*
X015496Y010958D02*
X015605Y010958D01*
X015585Y010800D02*
X015763Y010800D01*
X015760Y010641D02*
X015600Y010641D01*
X015536Y010442D02*
X015418Y010324D01*
X015390Y010166D02*
X016570Y010166D01*
X016418Y010324D02*
X016536Y010442D01*
X016553Y010483D02*
X016570Y010483D01*
X016570Y010958D02*
X016496Y010958D01*
X016570Y011117D02*
X016040Y011117D01*
X015882Y011275D02*
X016570Y011275D01*
X016570Y011434D02*
X004890Y011434D01*
X004890Y011592D02*
X016570Y011592D01*
X016570Y010007D02*
X015304Y010007D01*
X015145Y009849D02*
X016570Y009849D01*
X016570Y009690D02*
X014987Y009690D01*
X014828Y009532D02*
X016570Y009532D01*
X016570Y009373D02*
X014670Y009373D01*
X014511Y009215D02*
X016570Y009215D01*
X016570Y009056D02*
X014353Y009056D01*
X014305Y008898D02*
X016570Y008898D01*
X016570Y008739D02*
X014360Y008739D01*
X014353Y008581D02*
X016570Y008581D01*
X016570Y008422D02*
X014274Y008422D01*
X014027Y008264D02*
X016570Y008264D01*
X016570Y008105D02*
X005052Y008105D01*
X005210Y007947D02*
X010091Y007947D01*
X010009Y007788D02*
X005369Y007788D01*
X005527Y007630D02*
X010000Y007630D01*
X010053Y007471D02*
X008398Y007471D01*
X007962Y007471D02*
X005686Y007471D01*
X005844Y007313D02*
X007845Y007313D01*
X010064Y008444D02*
X010182Y008326D01*
X010336Y008262D01*
X011024Y008262D01*
X011178Y008326D01*
X011296Y008444D01*
X011360Y008598D01*
X011360Y008766D01*
X011296Y008920D01*
X011178Y009038D01*
X011024Y009102D01*
X010336Y009102D01*
X010182Y009038D01*
X010064Y008920D01*
X010000Y008766D01*
X010000Y008598D01*
X010064Y008444D01*
X010086Y008422D02*
X004890Y008422D01*
X004890Y008581D02*
X010007Y008581D01*
X010000Y008739D02*
X004890Y008739D01*
X004890Y008898D02*
X010055Y008898D01*
X010226Y009056D02*
X004890Y009056D01*
X004890Y009215D02*
X013918Y009215D01*
X013226Y009056D02*
X011134Y009056D01*
X011305Y008898D02*
X013055Y008898D01*
X013000Y008739D02*
X011360Y008739D01*
X011353Y008581D02*
X013007Y008581D01*
X013086Y008422D02*
X011274Y008422D01*
X011027Y008264D02*
X013333Y008264D01*
X013091Y007947D02*
X011269Y007947D01*
X011351Y007788D02*
X013009Y007788D01*
X013000Y007630D02*
X011360Y007630D01*
X011307Y007471D02*
X013053Y007471D01*
X014146Y007313D02*
X016570Y007313D01*
X016570Y007471D02*
X014307Y007471D01*
X014360Y007630D02*
X016570Y007630D01*
X016570Y007788D02*
X014351Y007788D01*
X014269Y007947D02*
X016570Y007947D01*
X013135Y009373D02*
X011225Y009373D01*
X011178Y009326D02*
X011296Y009444D01*
X011360Y009598D01*
X011360Y009766D01*
X011296Y009920D01*
X011178Y010038D01*
X011024Y010102D01*
X010336Y010102D01*
X010182Y010038D01*
X010064Y009920D01*
X010000Y009766D01*
X010000Y009598D01*
X010064Y009444D01*
X010182Y009326D01*
X010336Y009262D01*
X011024Y009262D01*
X011178Y009326D01*
X011332Y009532D02*
X013028Y009532D01*
X013000Y009690D02*
X011360Y009690D01*
X011326Y009849D02*
X013034Y009849D01*
X013151Y010007D02*
X011209Y010007D01*
X011173Y010324D02*
X013164Y010324D01*
X013028Y010483D02*
X011312Y010483D01*
X011360Y010641D02*
X012981Y010641D01*
X012996Y010800D02*
X011346Y010800D01*
X011258Y010958D02*
X013077Y010958D01*
X010151Y010007D02*
X004890Y010007D01*
X004890Y009849D02*
X010034Y009849D01*
X010000Y009690D02*
X004890Y009690D01*
X004890Y009532D02*
X010028Y009532D01*
X010135Y009373D02*
X004890Y009373D01*
X004893Y008264D02*
X010333Y008264D01*
X005251Y007313D02*
X004140Y007313D01*
X004140Y007471D02*
X005092Y007471D01*
X004934Y007630D02*
X004116Y007630D01*
X004023Y007788D02*
X004775Y007788D01*
X004617Y007947D02*
X001798Y007947D01*
X001700Y007947D02*
X001660Y007947D01*
X001660Y007788D02*
X001700Y007788D01*
X001700Y007630D02*
X001660Y007630D01*
X001660Y007471D02*
X001700Y007471D01*
X001700Y007313D02*
X001660Y007313D01*
X001700Y007160D02*
X002160Y007160D01*
X002160Y006842D01*
X002148Y006768D01*
X002125Y006696D01*
X002091Y006628D01*
X002046Y006567D01*
X001993Y006514D01*
X001932Y006469D01*
X001864Y006435D01*
X001792Y006412D01*
X001718Y006400D01*
X001700Y006400D01*
X001700Y007160D01*
X001700Y007154D02*
X001660Y007154D01*
X001660Y006996D02*
X001700Y006996D01*
X001700Y006837D02*
X001660Y006837D01*
X001660Y006679D02*
X001700Y006679D01*
X001700Y006520D02*
X001660Y006520D01*
X001999Y006520D02*
X002389Y006520D01*
X002266Y006679D02*
X002116Y006679D01*
X002159Y006837D02*
X002220Y006837D01*
X002220Y006996D02*
X002160Y006996D01*
X002160Y007154D02*
X002220Y007154D01*
X002220Y007313D02*
X002160Y007313D01*
X002160Y007471D02*
X002220Y007471D01*
X002244Y007630D02*
X002136Y007630D01*
X002050Y007788D02*
X002337Y007788D01*
X003023Y007788D02*
X003337Y007788D01*
X003244Y007630D02*
X003116Y007630D01*
X003140Y007471D02*
X003220Y007471D01*
X003220Y007313D02*
X003140Y007313D01*
X003140Y007154D02*
X003220Y007154D01*
X003220Y006996D02*
X003161Y006996D01*
X003043Y006520D02*
X002971Y006520D01*
X001893Y005094D02*
X001423Y005094D01*
X001589Y004935D02*
X001735Y004935D01*
X001685Y004777D02*
X001654Y004777D01*
X001655Y004618D02*
X001685Y004618D01*
X001700Y004460D02*
X001603Y004460D01*
X001473Y004301D02*
X001859Y004301D01*
X002865Y001924D02*
X005549Y001924D01*
X005314Y001765D02*
X002669Y001765D01*
X002660Y001622D02*
X002589Y001645D01*
X002514Y001657D01*
X002198Y001657D01*
X002198Y001198D01*
X002954Y001198D01*
X002954Y001218D01*
X002942Y001292D01*
X002919Y001363D01*
X002885Y001430D01*
X002841Y001491D01*
X002787Y001544D01*
X002727Y001588D01*
X002660Y001622D01*
X002690Y001607D02*
X005234Y001607D01*
X005220Y001448D02*
X002872Y001448D01*
X002942Y001290D02*
X005220Y001290D01*
X005220Y001131D02*
X002952Y001131D01*
X002954Y001142D02*
X002942Y001068D01*
X002919Y000997D01*
X002885Y000930D01*
X002841Y000869D01*
X002787Y000816D01*
X002727Y000772D01*
X002660Y000738D01*
X002589Y000715D01*
X002514Y000703D01*
X002198Y000703D01*
X002198Y001162D01*
X002954Y001162D01*
X002954Y001142D01*
X002906Y000973D02*
X005220Y000973D01*
X005220Y000814D02*
X002784Y000814D01*
X002198Y000814D02*
X002162Y000814D01*
X002162Y000973D02*
X002198Y000973D01*
X002198Y001131D02*
X002162Y001131D01*
X002162Y001290D02*
X002198Y001290D01*
X002198Y001448D02*
X002162Y001448D01*
X002162Y001607D02*
X002198Y001607D01*
X005811Y001924D02*
X006549Y001924D01*
X006314Y001765D02*
X006046Y001765D01*
X006126Y001607D02*
X006234Y001607D01*
X006220Y001448D02*
X006140Y001448D01*
X006140Y001290D02*
X006220Y001290D01*
X006220Y001131D02*
X006140Y001131D01*
X006140Y000973D02*
X006220Y000973D01*
X006220Y000814D02*
X006140Y000814D01*
X002141Y011434D02*
X000660Y011434D01*
X000660Y011592D02*
X001797Y011592D01*
X001563Y011751D02*
X000660Y011751D01*
X000660Y011909D02*
X001404Y011909D01*
X001267Y012068D02*
X000660Y012068D01*
X000660Y012226D02*
X001175Y012226D01*
X001084Y012385D02*
X000660Y012385D01*
X000660Y012543D02*
X001033Y012543D01*
X000990Y012702D02*
X000660Y012702D01*
X000660Y012860D02*
X000950Y012860D01*
X000950Y013019D02*
X000660Y013019D01*
X000660Y013177D02*
X000950Y013177D01*
X000957Y013336D02*
X000660Y013336D01*
X000660Y013494D02*
X001000Y013494D01*
X001042Y013653D02*
X000660Y013653D01*
X000660Y013811D02*
X001104Y013811D01*
X001196Y013970D02*
X000660Y013970D01*
X000660Y014128D02*
X001287Y014128D01*
X001440Y014287D02*
X000660Y014287D01*
X000660Y014445D02*
X001598Y014445D01*
X001859Y014604D02*
X000660Y014604D01*
X003501Y014604D02*
X016570Y014604D01*
D18*
X008180Y007180D03*
M02*
