%
M48
M72
T01C0.0240
T02C0.0320
T03C0.0394
T04C0.0400
%
T01
X8180Y7180
T02
X6880Y6680
X5480Y6680
X2180Y4680
X1180Y4680
X10680Y4682
X10680Y5682
X10680Y6682
X10680Y7682
X10680Y8682
X10680Y9682
X10680Y10682
X13680Y10682
X13680Y9682
X13680Y8682
X13680Y7682
X13680Y6682
X13680Y5682
X13680Y4682
X13680Y3682
X13680Y2682
X13680Y1682
X10680Y1682
X10680Y2682
X10680Y3682
X15180Y10680
X16180Y10680
T03
X2180Y1180
X2180Y2180
T04
X5680Y1180
X6680Y1180
X7680Y1180
X8680Y1180
X3680Y7180
X2680Y7180
X1680Y7180
X5900Y12290
X5900Y14070
X8460Y14070
X9900Y14070
X9900Y12290
X8460Y12290
X12460Y12290
X13900Y12290
X13900Y14070
X12460Y14070
X16460Y14070
X16460Y12290
X15680Y5680
X15680Y4680
X15680Y3680
X15680Y2680
X15680Y1680
M30
