G75*
%MOIN*%
%OFA0B0*%
%FSLAX24Y24*%
%IPPOS*%
%LPD*%
%AMOC8*
5,1,8,0,0,1.08239X$1,22.5*
%
%ADD10C,0.0000*%
D10*
X000180Y000180D02*
X000180Y015176D01*
X017050Y015176D01*
X017050Y000180D01*
X000180Y000180D01*
X002030Y013080D02*
X002032Y013130D01*
X002038Y013180D01*
X002048Y013230D01*
X002061Y013278D01*
X002078Y013326D01*
X002099Y013372D01*
X002123Y013416D01*
X002151Y013458D01*
X002182Y013498D01*
X002216Y013535D01*
X002253Y013570D01*
X002292Y013601D01*
X002333Y013630D01*
X002377Y013655D01*
X002423Y013677D01*
X002470Y013695D01*
X002518Y013709D01*
X002567Y013720D01*
X002617Y013727D01*
X002667Y013730D01*
X002718Y013729D01*
X002768Y013724D01*
X002818Y013715D01*
X002866Y013703D01*
X002914Y013686D01*
X002960Y013666D01*
X003005Y013643D01*
X003048Y013616D01*
X003088Y013586D01*
X003126Y013553D01*
X003161Y013517D01*
X003194Y013478D01*
X003223Y013437D01*
X003249Y013394D01*
X003272Y013349D01*
X003291Y013302D01*
X003306Y013254D01*
X003318Y013205D01*
X003326Y013155D01*
X003330Y013105D01*
X003330Y013055D01*
X003326Y013005D01*
X003318Y012955D01*
X003306Y012906D01*
X003291Y012858D01*
X003272Y012811D01*
X003249Y012766D01*
X003223Y012723D01*
X003194Y012682D01*
X003161Y012643D01*
X003126Y012607D01*
X003088Y012574D01*
X003048Y012544D01*
X003005Y012517D01*
X002960Y012494D01*
X002914Y012474D01*
X002866Y012457D01*
X002818Y012445D01*
X002768Y012436D01*
X002718Y012431D01*
X002667Y012430D01*
X002617Y012433D01*
X002567Y012440D01*
X002518Y012451D01*
X002470Y012465D01*
X002423Y012483D01*
X002377Y012505D01*
X002333Y012530D01*
X002292Y012559D01*
X002253Y012590D01*
X002216Y012625D01*
X002182Y012662D01*
X002151Y012702D01*
X002123Y012744D01*
X002099Y012788D01*
X002078Y012834D01*
X002061Y012882D01*
X002048Y012930D01*
X002038Y012980D01*
X002032Y013030D01*
X002030Y013080D01*
M02*
