G75*
%MOIN*%
%OFA0B0*%
%FSLAX24Y24*%
%IPPOS*%
%LPD*%
%AMOC8*
5,1,8,0,0,1.08239X$1,22.5*
%
%ADD10C,0.0600*%
%ADD11C,0.0680*%
%ADD12C,0.0674*%
%ADD13OC8,0.0710*%
%ADD14C,0.0710*%
%ADD15R,0.0592X0.0671*%
%ADD16C,0.0600*%
%ADD17C,0.1380*%
%ADD18C,0.0480*%
D10*
X010420Y001682D02*
X010940Y001682D01*
X010940Y002682D02*
X010420Y002682D01*
X010420Y003682D02*
X010940Y003682D01*
X010940Y004682D02*
X010420Y004682D01*
X010420Y005682D02*
X010940Y005682D01*
X010940Y006682D02*
X010420Y006682D01*
X010420Y007682D02*
X010940Y007682D01*
X010940Y008682D02*
X010420Y008682D01*
X010420Y009682D02*
X010940Y009682D01*
X010940Y010682D02*
X010420Y010682D01*
X013420Y010682D02*
X013940Y010682D01*
X013940Y009682D02*
X013420Y009682D01*
X013420Y008682D02*
X013940Y008682D01*
X013940Y007682D02*
X013420Y007682D01*
X013420Y006682D02*
X013940Y006682D01*
X013940Y005682D02*
X013420Y005682D01*
X013420Y004682D02*
X013940Y004682D01*
X013940Y003682D02*
X013420Y003682D01*
X013420Y002682D02*
X013940Y002682D01*
X013940Y001682D02*
X013420Y001682D01*
D11*
X015380Y001680D02*
X015980Y001680D01*
X015980Y002680D02*
X015380Y002680D01*
X015380Y003680D02*
X015980Y003680D01*
X015980Y004680D02*
X015380Y004680D01*
X015380Y005680D02*
X015980Y005680D01*
X008680Y001480D02*
X008680Y000880D01*
X007680Y000880D02*
X007680Y001480D01*
X006680Y001480D02*
X006680Y000880D01*
X005680Y000880D02*
X005680Y001480D01*
X003680Y006880D02*
X003680Y007480D01*
X002680Y007480D02*
X002680Y006880D01*
X001680Y006880D02*
X001680Y007480D01*
X005600Y012290D02*
X006200Y012290D01*
X008160Y012290D02*
X008760Y012290D01*
X009600Y012290D02*
X010200Y012290D01*
X010200Y014070D02*
X009600Y014070D01*
X008760Y014070D02*
X008160Y014070D01*
X006200Y014070D02*
X005600Y014070D01*
X012160Y014070D02*
X012760Y014070D01*
X013600Y014070D02*
X014200Y014070D01*
X014200Y012290D02*
X013600Y012290D01*
X012760Y012290D02*
X012160Y012290D01*
X016160Y012290D02*
X016760Y012290D01*
X016760Y014070D02*
X016160Y014070D01*
D12*
X002477Y001180D02*
X001883Y001180D01*
X001883Y002180D02*
X002477Y002180D01*
D13*
X002180Y004680D03*
X006880Y006680D03*
D14*
X005480Y006680D03*
X001180Y004680D03*
D15*
X007845Y004680D03*
X008515Y004680D03*
X008845Y010680D03*
X009515Y010680D03*
D16*
X015180Y010680D03*
X016180Y010680D03*
D17*
X002680Y013080D03*
D18*
X008180Y007180D03*
M02*
